<svg preserveAspectRatio="none" width="100%" height="100%" overflow="visible" style="display: block;" viewBox="0 0 15.256 14.05" fill="none" xmlns="http://www.w3.org/2000/svg">
<path id="Icon" d="M4.85597 5.525H7.85597M4.85597 8.15H10.106M8.23097 13.4C11.7518 13.4 14.606 10.5458 14.606 7.025C14.606 3.50418 11.7518 0.65 8.23097 0.65C4.71016 0.65 1.85597 3.50418 1.85597 7.025C1.85597 7.7375 1.97286 8.42269 2.1885 9.06246C2.26965 9.30321 2.31023 9.42359 2.31754 9.51607C2.32477 9.6074 2.31931 9.67143 2.29671 9.76021C2.27383 9.85011 2.22332 9.94361 2.12229 10.1306L0.895552 12.4013C0.720568 12.7252 0.633076 12.8871 0.652658 13.0121C0.669713 13.1209 0.733785 13.2168 0.827855 13.2742C0.935857 13.3401 1.11895 13.3211 1.48513 13.2833L5.3259 12.8863C5.44221 12.8742 5.50036 12.8682 5.55337 12.8703C5.6055 12.8722 5.64231 12.8771 5.69315 12.8889C5.74484 12.9008 5.80984 12.9258 5.93984 12.9759C6.65088 13.2498 7.42339 13.4 8.23097 13.4Z" stroke="var(--stroke-0, #B9C0D4)" stroke-width="1.3" stroke-linecap="round" stroke-linejoin="round"/>
</svg>
