<svg preserveAspectRatio="none" width="100%" height="100%" overflow="visible" style="display: block;" viewBox="0 0 18.3815 17.6431" fill="none" xmlns="http://www.w3.org/2000/svg">
<path id="Icon" d="M10.6441 1.48065L16.9174 5.55832C17.1391 5.70241 17.2499 5.77445 17.3302 5.87055C17.4013 5.95562 17.4547 6.05401 17.4873 6.15997C17.5241 6.27967 17.5241 6.41186 17.5241 6.67625V12.786C17.5241 14.1861 17.5241 14.8862 17.2516 15.421C17.0119 15.8914 16.6295 16.2738 16.1591 16.5135C15.6243 16.786 14.9242 16.786 13.5241 16.786H4.85742C3.45729 16.786 2.75722 16.786 2.22244 16.5135C1.75204 16.2738 1.36959 15.8914 1.1299 15.421C0.857421 14.8862 0.857421 14.1861 0.857421 12.786V6.67625C0.857421 6.41186 0.857421 6.27967 0.894229 6.15997C0.926813 6.05401 0.98021 5.95562 1.05129 5.87055C1.1316 5.77445 1.24243 5.70241 1.4641 5.55832L7.73745 1.48065M10.6441 1.48065C10.118 1.13872 9.855 0.96776 9.57161 0.901242C9.32111 0.842443 9.0604 0.842443 8.8099 0.901242C8.52651 0.96776 8.26349 1.13872 7.73745 1.48065M10.6441 1.48065L16.6641 5.3937C16.9507 5.58 17.0941 5.67314 17.1437 5.79127C17.1871 5.8945 17.1871 6.01084 17.1437 6.11407C17.0941 6.23219 16.9507 6.32534 16.6641 6.51163L10.6441 10.4247C10.118 10.7666 9.855 10.9376 9.57161 11.0041C9.32111 11.0629 9.0604 11.0629 8.8099 11.0041C8.52651 10.9376 8.26349 10.7666 7.73745 10.4247L1.71736 6.51163C1.43076 6.32534 1.28746 6.23219 1.23783 6.11407C1.19445 6.01084 1.19445 5.8945 1.23783 5.79127C1.28746 5.67314 1.43076 5.58 1.71736 5.3937L7.73745 1.48065" stroke="var(--stroke-0, #4A5578)" stroke-width="1.71429" stroke-linecap="round" stroke-linejoin="round"/>
</svg>
