<svg preserveAspectRatio="none" width="100%" height="100%" overflow="visible" style="display: block;" viewBox="0 0 14.8 14.8" fill="none" xmlns="http://www.w3.org/2000/svg">
<path id="Icon" d="M4.025 7.4L6.275 9.65L10.775 5.15M4.25 14.15H10.55C11.8101 14.15 12.4402 14.15 12.9215 13.9048C13.3448 13.689 13.689 13.3448 13.9048 12.9215C14.15 12.4402 14.15 11.8101 14.15 10.55V4.25C14.15 2.98988 14.15 2.35982 13.9048 1.87852C13.689 1.45516 13.3448 1.11095 12.9215 0.895236C12.4402 0.65 11.8101 0.65 10.55 0.65H4.25C2.98988 0.65 2.35982 0.65 1.87852 0.895236C1.45516 1.11095 1.11095 1.45516 0.895236 1.87852C0.65 2.35982 0.65 2.98988 0.65 4.25V10.55C0.65 11.8101 0.65 12.4402 0.895236 12.9215C1.11095 13.3448 1.45516 13.689 1.87852 13.9048C2.35982 14.15 2.98988 14.15 4.25 14.15Z" stroke="var(--stroke-0, #B9C0D4)" stroke-width="1.3" stroke-linecap="round" stroke-linejoin="round"/>
</svg>
