<svg preserveAspectRatio="none" width="100%" height="100%" overflow="visible" style="display: block;" viewBox="0 0 9.9 9.9" fill="none" xmlns="http://www.w3.org/2000/svg">
<path id="Icon" d="M3.45 3.45V1.95C3.45 1.12157 2.77843 0.45 1.95 0.45C1.12157 0.45 0.45 1.12157 0.45 1.95C0.45 2.77843 1.12157 3.45 1.95 3.45H3.45ZM3.45 3.45V6.45M3.45 3.45H6.45M3.45 6.45V7.95C3.45 8.77843 2.77843 9.45 1.95 9.45C1.12157 9.45 0.45 8.77843 0.45 7.95C0.45 7.12157 1.12157 6.45 1.95 6.45H3.45ZM3.45 6.45H6.45M6.45 6.45H7.95C8.77843 6.45 9.45 7.12157 9.45 7.95C9.45 8.77843 8.77843 9.45 7.95 9.45C7.12157 9.45 6.45 8.77843 6.45 7.95V6.45ZM6.45 6.45V3.45M6.45 3.45V1.95C6.45 1.12157 7.12157 0.45 7.95 0.45C8.77843 0.45 9.45 1.12157 9.45 1.95C9.45 2.77843 8.77843 3.45 7.95 3.45H6.45Z" stroke="var(--stroke-0, #F2F1F8)" stroke-width="0.9" stroke-linecap="round" stroke-linejoin="round"/>
</svg>
