<svg preserveAspectRatio="none" width="100%" height="100%" overflow="visible" style="display: block;" viewBox="0 0 17.3334 14.1668" fill="none" xmlns="http://www.w3.org/2000/svg">
<path id="Icon" d="M1.14585 7.08343H3.82324C4.36569 7.08343 4.86159 7.38991 5.10418 7.87509C5.34677 8.36028 5.84267 8.66676 6.38512 8.66676H10.9482C11.4907 8.66676 11.9866 8.36028 12.2292 7.87509C12.4718 7.38991 12.9677 7.08343 13.5101 7.08343H16.1875M6.26521 0.750094H11.0682C11.9207 0.750094 12.3469 0.750094 12.7233 0.879899C13.0561 0.994688 13.3592 1.18202 13.6107 1.42835C13.8951 1.7069 14.0857 2.08817 14.467 2.85068L16.1822 6.28107C16.3318 6.58031 16.4066 6.72993 16.4594 6.88674C16.5062 7.02599 16.54 7.1693 16.5604 7.3148C16.5833 7.47865 16.5833 7.64593 16.5833 7.98049V9.61676C16.5833 10.9469 16.5833 11.6119 16.3245 12.12C16.0968 12.5669 15.7335 12.9302 15.2866 13.1579C14.7785 13.4168 14.1135 13.4168 12.7833 13.4168H4.55001C3.21989 13.4168 2.55483 13.4168 2.04679 13.1579C1.5999 12.9302 1.23657 12.5669 1.00887 12.12C0.750015 11.6119 0.750015 10.9469 0.750015 9.61676V7.98049C0.750015 7.64593 0.750015 7.47865 0.772953 7.3148C0.793323 7.1693 0.827153 7.02599 0.874006 6.88674C0.926762 6.72993 1.00157 6.58031 1.15119 6.28107L2.86639 2.85068C3.24765 2.08816 3.43828 1.7069 3.72268 1.42835C3.97418 1.18202 4.2773 0.994688 4.61009 0.879899C4.98642 0.750094 5.41269 0.750094 6.26521 0.750094Z" stroke="var(--stroke-0, #111322)" stroke-width="1.5" stroke-linecap="round" stroke-linejoin="round"/>
</svg>
