<svg preserveAspectRatio="none" width="100%" height="100%" overflow="visible" style="display: block;" viewBox="0 0 21.5 21.5" fill="none" xmlns="http://www.w3.org/2000/svg">
<g id="Icon">
<path d="M10.75 20.75C16.2728 20.75 20.75 16.2728 20.75 10.75C20.75 5.22715 16.2728 0.75 10.75 0.75C5.22715 0.75 0.75 5.22715 0.75 10.75C0.75 16.2728 5.22715 20.75 10.75 20.75Z" stroke="var(--stroke-0, #5142C0)" stroke-width="1.5" stroke-linecap="round" stroke-linejoin="round"/>
<path d="M6.75 8.35C6.75 7.78995 6.75 7.50992 6.85899 7.29601C6.95487 7.10785 7.10785 6.95487 7.29601 6.85899C7.50992 6.75 7.78995 6.75 8.35 6.75H13.15C13.7101 6.75 13.9901 6.75 14.204 6.85899C14.3922 6.95487 14.5451 7.10785 14.641 7.29601C14.75 7.50992 14.75 7.78995 14.75 8.35V13.15C14.75 13.7101 14.75 13.9901 14.641 14.204C14.5451 14.3922 14.3922 14.5451 14.204 14.641C13.9901 14.75 13.7101 14.75 13.15 14.75H8.35C7.78995 14.75 7.50992 14.75 7.29601 14.641C7.10785 14.5451 6.95487 14.3922 6.85899 14.204C6.75 13.9901 6.75 13.7101 6.75 13.15V8.35Z" stroke="var(--stroke-0, #5142C0)" stroke-width="1.5" stroke-linecap="round" stroke-linejoin="round"/>
</g>
</svg>
