<svg preserveAspectRatio="none" width="100%" height="100%" overflow="visible" style="display: block;" viewBox="0 0 18.3811 16.7144" fill="none" xmlns="http://www.w3.org/2000/svg">
<path id="Icon" d="M2.52389 5.02105C2.38721 5.01752 2.28797 5.00961 2.19874 4.99186C1.53759 4.86035 1.02076 4.34352 0.889245 3.68237C0.85722 3.52137 0.85722 3.32777 0.85722 2.94055C0.85722 2.55334 0.85722 2.35973 0.889245 2.19874C1.02076 1.53759 1.53759 1.02076 2.19874 0.889245C2.35973 0.85722 2.55334 0.85722 2.94055 0.85722H15.4406C15.8278 0.85722 16.0214 0.85722 16.1824 0.889245C16.8435 1.02076 17.3604 1.53759 17.4919 2.19874C17.5239 2.35973 17.5239 2.55334 17.5239 2.94055C17.5239 3.32777 17.5239 3.52137 17.4919 3.68237C17.3604 4.34352 16.8435 4.86035 16.1824 4.99186C16.0931 5.00961 15.9939 5.01752 15.8572 5.02105M7.52389 9.19055H10.8572M2.52389 5.02389H15.8572V11.8572C15.8572 13.2574 15.8572 13.9574 15.5847 14.4922C15.3451 14.9626 14.9626 15.3451 14.4922 15.5847C13.9574 15.8572 13.2574 15.8572 11.8572 15.8572H6.52389C5.12376 15.8572 4.42369 15.8572 3.88891 15.5847C3.41851 15.3451 3.03605 14.9626 2.79637 14.4922C2.52389 13.9574 2.52389 13.2574 2.52389 11.8572V5.02389Z" stroke="var(--stroke-0, #4A5578)" stroke-width="1.71429" stroke-linecap="round" stroke-linejoin="round"/>
</svg>
