<svg preserveAspectRatio="none" width="100%" height="100%" overflow="visible" style="display: block;" viewBox="0 0 15.75 15.75" fill="none" xmlns="http://www.w3.org/2000/svg">
<path id="Icon" d="M4.3125 7.875H4.32042M11.4375 7.875H11.4454M7.875 7.875H7.88292M7.875 11.4375H7.88292M7.875 4.3125H7.88292M0.750001 4.55L0.750001 11.2C0.750001 12.5301 0.750001 13.1952 1.00886 13.7032C1.23656 14.1501 1.59989 14.5134 2.04677 14.7411C2.55481 15 3.21988 15 4.55 15H11.2C12.5301 15 13.1952 15 13.7032 14.7411C14.1501 14.5134 14.5134 14.1501 14.7411 13.7032C15 13.1952 15 12.5301 15 11.2V4.55C15 3.21988 15 2.55481 14.7411 2.04677C14.5134 1.59989 14.1501 1.23656 13.7032 1.00886C13.1952 0.750002 12.5301 0.750002 11.2 0.750001L4.55 0.750001C3.21988 0.75 2.55481 0.75 2.04677 1.00886C1.59989 1.23656 1.23656 1.59989 1.00886 2.04677C0.750001 2.55481 0.750001 3.21988 0.750001 4.55Z" stroke="var(--stroke-0, #7D89B0)" stroke-width="1.5" stroke-linecap="round" stroke-linejoin="round"/>
</svg>
