<svg preserveAspectRatio="none" width="100%" height="100%" overflow="visible" style="display: block;" viewBox="0 0 18.1667 15.6296" fill="none" xmlns="http://www.w3.org/2000/svg">
<path id="Icon" d="M1.16668 8.21297H3.98499C4.55599 8.21297 5.07799 8.53558 5.33335 9.0463C5.58871 9.55703 6.1107 9.87964 6.68171 9.87964H11.485C12.056 9.87964 12.578 9.55703 12.8333 9.0463C13.0887 8.53558 13.6107 8.21297 14.1817 8.21297H17M9.50001 1.5463H6.55548C5.65809 1.5463 5.20939 1.5463 4.81325 1.68294C4.46294 1.80377 4.14387 2.00097 3.87913 2.26026C3.57976 2.55347 3.3791 2.9548 2.97777 3.75745L1.1723 7.36839C1.01481 7.68337 0.936064 7.84087 0.880531 8.00593C0.831212 8.15251 0.795602 8.30336 0.774159 8.45652C0.750014 8.62899 0.750014 8.80507 0.750014 9.15724V10.8796C0.750014 12.2798 0.750014 12.9798 1.0225 13.5146C1.26218 13.985 1.64463 14.3675 2.11504 14.6071C2.64982 14.8796 3.34988 14.8796 4.75001 14.8796H13.4167C14.8168 14.8796 15.5169 14.8796 16.0517 14.6071C16.5221 14.3675 16.9045 13.985 17.1442 13.5146C17.4167 12.9798 17.4167 12.2798 17.4167 10.8796V9.15724C17.4167 8.80507 17.4167 8.62899 17.3925 8.45652C17.3711 8.30336 17.3355 8.15251 17.2862 8.00593C17.2306 7.84087 17.1519 7.68338 16.9944 7.36839L16.1667 6.12964M15.6517 2.83333C15.6517 3.98393 14.7189 4.91667 13.5683 4.91667C12.4177 4.91667 11.485 3.98393 11.485 2.83333C11.485 1.68274 12.4177 0.75 13.5683 0.75C14.7189 0.75 15.6517 1.68274 15.6517 2.83333Z" stroke="var(--stroke-0, #535862)" stroke-width="1.5" stroke-linecap="round" stroke-linejoin="round"/>
</svg>
