<svg preserveAspectRatio="none" width="100%" height="100%" overflow="visible" style="display: block;" viewBox="0 0 15.0476 3.38095" fill="none" xmlns="http://www.w3.org/2000/svg">
<g id="Icon">
<path d="M7.52381 2.52381C7.98405 2.52381 8.35714 2.15071 8.35714 1.69048C8.35714 1.23024 7.98405 0.857143 7.52381 0.857143C7.06357 0.857143 6.69048 1.23024 6.69048 1.69048C6.69048 2.15071 7.06357 2.52381 7.52381 2.52381Z" stroke="var(--stroke-0, #4A5578)" stroke-width="1.71429" stroke-linecap="round" stroke-linejoin="round"/>
<path d="M13.3571 2.52381C13.8174 2.52381 14.1905 2.15071 14.1905 1.69048C14.1905 1.23024 13.8174 0.857143 13.3571 0.857143C12.8969 0.857143 12.5238 1.23024 12.5238 1.69048C12.5238 2.15071 12.8969 2.52381 13.3571 2.52381Z" stroke="var(--stroke-0, #4A5578)" stroke-width="1.71429" stroke-linecap="round" stroke-linejoin="round"/>
<path d="M1.69048 2.52381C2.15071 2.52381 2.52381 2.15071 2.52381 1.69048C2.52381 1.23024 2.15071 0.857143 1.69048 0.857143C1.23024 0.857143 0.857143 1.23024 0.857143 1.69048C0.857143 2.15071 1.23024 2.52381 1.69048 2.52381Z" stroke="var(--stroke-0, #4A5578)" stroke-width="1.71429" stroke-linecap="round" stroke-linejoin="round"/>
</g>
</svg>
