<svg preserveAspectRatio="none" width="100%" height="100%" overflow="visible" style="display: block;" viewBox="0 0 19.2143 19.2143" fill="none" xmlns="http://www.w3.org/2000/svg">
<path id="Icon" d="M3.04464 18.3571V13.9821M3.04464 5.23214V0.857143M0.857143 3.04464H5.23214M0.857143 16.1696H5.23214M10.4821 1.73214L8.96474 5.6774C8.71798 6.31897 8.5946 6.63976 8.40273 6.90959C8.23268 7.14874 8.02374 7.35768 7.78459 7.52773C7.51476 7.7196 7.19397 7.84298 6.5524 8.08974L2.60714 9.60714L6.5524 11.1245C7.19397 11.3713 7.51476 11.4947 7.78459 11.6866C8.02374 11.8566 8.23268 12.0655 8.40273 12.3047C8.5946 12.5745 8.71798 12.8953 8.96474 13.5369L10.4821 17.4821L11.9995 13.5369C12.2463 12.8953 12.3697 12.5745 12.5616 12.3047C12.7316 12.0655 12.9405 11.8566 13.1797 11.6866C13.4495 11.4947 13.7703 11.3713 14.4119 11.1245L18.3571 9.60714L14.4119 8.08974C13.7703 7.84298 13.4495 7.7196 13.1797 7.52773C12.9405 7.35768 12.7316 7.14874 12.5616 6.90959C12.3697 6.63976 12.2463 6.31897 11.9995 5.6774L10.4821 1.73214Z" stroke="var(--stroke-0, #5142C0)" stroke-width="1.71429" stroke-linecap="round" stroke-linejoin="round"/>
</svg>
