<svg preserveAspectRatio="none" width="100%" height="100%" overflow="visible" style="display: block;" viewBox="0 0 6 4.7998" fill="none" xmlns="http://www.w3.org/2000/svg">
<path id="Lines" d="M0.599609 0C0.93085 0 1.19901 0.268418 1.19922 0.599609V4.19922C1.19922 4.53059 0.93098 4.7998 0.599609 4.7998C0.268418 4.79959 0 4.53046 0 4.19922V0.599609C0.0002105 0.268548 0.268548 0.0002105 0.599609 0ZM3 0C3.33124 0 3.5994 0.268418 3.59961 0.599609V4.19922C3.59961 4.53059 3.33137 4.7998 3 4.7998C2.66863 4.7998 2.40039 4.53059 2.40039 4.19922V0.599609C2.4006 0.268418 2.66876 0 3 0ZM5.40039 0C5.73145 0.000210436 5.99979 0.268548 6 0.599609V4.19922C6 4.53046 5.73158 4.79959 5.40039 4.7998C5.06902 4.7998 4.80078 4.53059 4.80078 4.19922V0.599609C4.80099 0.268418 5.06915 0 5.40039 0Z" fill="var(--fill-0, #181D27)"/>
</svg>
