<svg preserveAspectRatio="none" width="100%" height="100%" overflow="visible" style="display: block;" viewBox="0 0 22.4999 24.9" fill="none" xmlns="http://www.w3.org/2000/svg">
<g id="Shape" filter="url(#filter0_d_5390_19809)">
<path fill-rule="evenodd" clip-rule="evenodd" d="M6.24659 16.6176C5.91313 16.1662 5.50805 15.2432 4.78713 14.1227C4.37852 13.4889 3.36524 12.2955 3.06348 11.6894C2.80165 11.1537 2.82983 10.9135 2.89206 10.4696C3.00243 9.67988 3.75858 9.06495 4.56521 9.14795C5.17459 9.20957 5.69122 9.6409 6.15618 10.0483C6.4368 10.2935 6.782 10.7701 6.98982 11.0393C7.1812 11.2857 7.22817 11.3876 7.43247 11.6793C7.70252 12.0654 7.78706 12.2565 7.68374 11.8315C7.60037 11.2078 7.46417 10.1426 7.26692 9.20077C7.11663 8.48649 7.08023 8.37457 6.93698 7.82629C6.78552 7.2428 6.70802 6.83411 6.56595 6.21541C6.46733 5.77779 6.29003 4.8837 6.24189 4.38069C6.17496 3.69282 6.13974 2.57111 6.55186 2.05553C6.87475 1.65187 7.61564 1.52989 8.07473 1.77888C8.67589 2.10457 9.01756 3.04017 9.17373 3.41365C9.45435 4.08517 9.62812 4.86106 9.77958 5.87965C9.97214 7.17616 10.3267 8.97567 10.3385 9.35418C10.3667 8.89016 10.2586 7.91306 10.3338 7.4679C10.4019 7.06424 10.7189 6.59518 11.1158 6.46817C11.4516 6.36128 11.8449 6.3223 12.1913 6.39901C12.5588 6.47949 12.9462 6.76117 13.0907 7.02651C13.5157 7.8112 13.5239 9.41454 13.5415 9.32903C13.6425 8.8562 13.6249 7.78354 13.875 7.33712C14.0394 7.04286 14.4585 6.77752 14.6816 6.73477C15.0268 6.66937 15.4507 6.64926 15.8135 6.72471C16.1059 6.78633 16.5016 7.15855 16.6084 7.33712C16.8644 7.76971 17.01 8.99327 17.0534 9.42209C17.071 9.5994 17.1403 8.92914 17.3974 8.49655C17.8741 7.693 19.5614 7.53706 19.6259 9.30011C19.6553 10.1225 19.6494 10.0848 19.6494 10.6381C19.6494 11.2883 19.6353 11.6793 19.6025 12.1497C19.5661 12.6527 19.4651 13.7895 19.3183 14.3403C19.2173 14.7188 18.8827 15.5701 18.5528 16.0807C18.5528 16.0807 17.2918 17.6526 17.1544 18.3605C17.0158 19.0673 17.0616 19.0723 17.0346 19.5741C17.0076 20.0745 17.1767 20.7335 17.1767 20.7335C17.1767 20.7335 16.235 20.8643 15.7278 20.7775C15.2687 20.6983 14.7004 19.7199 14.5536 19.4206C14.3517 19.0082 13.9208 19.0874 13.7529 19.3917C13.4887 19.8733 12.9204 20.7373 12.5189 20.7913C11.7345 20.897 10.1072 20.8303 8.83322 20.8165C8.83322 20.8165 9.05044 19.5451 8.56669 19.1088C8.20858 18.7831 7.59215 18.1229 7.22347 17.7758L6.24659 16.6176Z" fill="var(--fill-0, white)"/>
<path fill-rule="evenodd" clip-rule="evenodd" d="M6.24659 16.6176C5.91313 16.1662 5.50805 15.2432 4.78713 14.1227C4.37852 13.4889 3.36524 12.2955 3.06348 11.6894C2.80165 11.1537 2.82983 10.9135 2.89206 10.4696C3.00243 9.67988 3.75858 9.06495 4.56521 9.14795C5.17459 9.20957 5.69122 9.6409 6.15618 10.0483C6.4368 10.2935 6.782 10.7701 6.98982 11.0393C7.1812 11.2857 7.22817 11.3876 7.43247 11.6793C7.70252 12.0654 7.78706 12.2565 7.68374 11.8315C7.60037 11.2078 7.46417 10.1426 7.26692 9.20077C7.11663 8.48649 7.08023 8.37457 6.93698 7.82629C6.78552 7.2428 6.70802 6.83411 6.56595 6.21541C6.46733 5.77779 6.29003 4.8837 6.24189 4.38069C6.17496 3.69282 6.13974 2.57111 6.55186 2.05553C6.87475 1.65187 7.61564 1.52989 8.07473 1.77888C8.67589 2.10457 9.01756 3.04017 9.17373 3.41365C9.45435 4.08517 9.62812 4.86106 9.77958 5.87965C9.97214 7.17616 10.3267 8.97567 10.3385 9.35418C10.3667 8.89016 10.2586 7.91306 10.3338 7.4679C10.4019 7.06424 10.7189 6.59518 11.1158 6.46817C11.4516 6.36128 11.8449 6.3223 12.1913 6.39901C12.5588 6.47949 12.9462 6.76117 13.0907 7.02651C13.5157 7.8112 13.5239 9.41454 13.5415 9.32903C13.6425 8.8562 13.6249 7.78354 13.875 7.33712C14.0394 7.04286 14.4585 6.77752 14.6816 6.73477C15.0268 6.66937 15.4507 6.64926 15.8135 6.72471C16.1059 6.78633 16.5016 7.15855 16.6084 7.33712C16.8644 7.76971 17.01 8.99327 17.0534 9.42209C17.071 9.5994 17.1403 8.92914 17.3974 8.49655C17.8741 7.693 19.5614 7.53706 19.6259 9.30011C19.6553 10.1225 19.6494 10.0848 19.6494 10.6381C19.6494 11.2883 19.6353 11.6793 19.6025 12.1497C19.5661 12.6527 19.4651 13.7895 19.3183 14.3403C19.2173 14.7188 18.8827 15.5701 18.5528 16.0807C18.5528 16.0807 17.2918 17.6526 17.1544 18.3605C17.0158 19.0673 17.0616 19.0723 17.0346 19.5741C17.0076 20.0745 17.1767 20.7335 17.1767 20.7335C17.1767 20.7335 16.235 20.8643 15.7278 20.7775C15.2687 20.6983 14.7004 19.7199 14.5536 19.4206C14.3517 19.0082 13.9208 19.0874 13.7529 19.3917C13.4887 19.8733 12.9204 20.7373 12.5189 20.7913C11.7345 20.897 10.1072 20.8303 8.83322 20.8165C8.83322 20.8165 9.05044 19.5451 8.56669 19.1088C8.20858 18.7831 7.59215 18.1229 7.22347 17.7758L6.24659 16.6176Z" stroke="var(--stroke-0, #181D27)" stroke-width="0.9" stroke-linecap="round" stroke-linejoin="round"/>
</g>
<defs>
<filter id="filter0_d_5390_19809" x="0" y="-2.98023e-08" width="22.4999" height="24.9" filterUnits="userSpaceOnUse" color-interpolation-filters="sRGB">
<feFlood flood-opacity="0" result="BackgroundImageFix"/>
<feColorMatrix in="SourceAlpha" type="matrix" values="0 0 0 0 0 0 0 0 0 0 0 0 0 0 0 0 0 0 127 0" result="hardAlpha"/>
<feOffset dy="1.2"/>
<feGaussianBlur stdDeviation="1.2"/>
<feColorMatrix type="matrix" values="0 0 0 0 0 0 0 0 0 0 0 0 0 0 0 0 0 0 0.24 0"/>
<feBlend mode="normal" in2="BackgroundImageFix" result="effect1_dropShadow_5390_19809"/>
<feBlend mode="normal" in="SourceGraphic" in2="effect1_dropShadow_5390_19809" result="shape"/>
</filter>
</defs>
</svg>
