<svg preserveAspectRatio="none" width="100%" height="100%" overflow="visible" style="display: block;" viewBox="0 0 18.1667 16.5" fill="none" xmlns="http://www.w3.org/2000/svg">
<path id="Icon" d="M5.33333 4.08333H7.625M5.33333 7.41667H7.625M5.33333 10.75H7.625M10.5417 4.08333H12.8333M10.5417 7.41667H12.8333M10.5417 10.75H12.8333M15.75 15.75V3.41667C15.75 2.48325 15.75 2.01654 15.5683 1.66002C15.4086 1.34641 15.1536 1.09145 14.84 0.931657C14.4835 0.750001 14.0168 0.750001 13.0833 0.750001H5.08333C4.14991 0.750001 3.6832 0.750001 3.32668 0.931657C3.01308 1.09145 2.75811 1.34641 2.59832 1.66002C2.41667 2.01654 2.41667 2.48325 2.41667 3.41667V15.75M17.4167 15.75H0.75" stroke="var(--stroke-0, #535862)" stroke-width="1.5" stroke-linecap="round" stroke-linejoin="round"/>
</svg>
