<svg preserveAspectRatio="none" width="100%" height="100%" overflow="visible" style="display: block;" viewBox="0 0 17.0625 17.0625" fill="none" xmlns="http://www.w3.org/2000/svg">
<path id="Icon" d="M15.1039 9.18243C15.1039 13.172 11.8697 16.4062 7.88007 16.4062C3.89047 16.4062 0.65625 13.172 0.65625 9.18243C0.65625 5.19282 3.89047 1.9586 7.88007 1.9586M4.99054 10.6272C4.99054 10.6272 6.07412 12.072 7.88007 12.072C9.68603 12.072 10.7696 10.6272 10.7696 10.6272M10.0472 7.01528H10.0544M5.71293 7.01528H5.72015M13.7812 0.65625V3.28125M13.7812 3.28125V5.90625M13.7812 3.28125H11.1562M13.7812 3.28125H16.4062M10.4084 7.01528C10.4084 7.21476 10.2467 7.37647 10.0472 7.37647C9.84774 7.37647 9.68603 7.21476 9.68603 7.01528C9.68603 6.8158 9.84774 6.65409 10.0472 6.65409C10.2467 6.65409 10.4084 6.8158 10.4084 7.01528ZM6.07412 7.01528C6.07412 7.21476 5.91241 7.37647 5.71293 7.37647C5.51345 7.37647 5.35174 7.21476 5.35174 7.01528C5.35174 6.8158 5.51345 6.65409 5.71293 6.65409C5.91241 6.65409 6.07412 6.8158 6.07412 7.01528Z" stroke="var(--stroke-0, #7D89B0)" stroke-width="1.3125" stroke-linecap="round" stroke-linejoin="round"/>
</svg>
