<svg preserveAspectRatio="none" width="100%" height="100%" overflow="visible" style="display: block;" viewBox="0 0 16.5 16.5" fill="none" xmlns="http://www.w3.org/2000/svg">
<path id="Icon" d="M4.91667 6.16667H8.25M4.91667 9.08333H10.75M8.25 15.75C12.3921 15.75 15.75 12.3921 15.75 8.25C15.75 4.10786 12.3921 0.75 8.25 0.75C4.10786 0.75 0.75 4.10786 0.75 8.25C0.75 9.24762 0.94478 10.1997 1.29839 11.0704C1.36606 11.2371 1.3999 11.3204 1.415 11.3877C1.42976 11.4536 1.43516 11.5024 1.43517 11.5699C1.43518 11.6389 1.42265 11.7141 1.39759 11.8645L0.903439 14.8294C0.851692 15.1398 0.825819 15.2951 0.873967 15.4073C0.916108 15.5056 0.994402 15.5839 1.09265 15.626C1.20491 15.6742 1.36015 15.6483 1.67063 15.5966L4.63554 15.1024C4.78591 15.0773 4.86109 15.0648 4.93011 15.0648C4.99763 15.0648 5.04638 15.0702 5.11227 15.085C5.17962 15.1001 5.26294 15.1339 5.42958 15.2016C6.30025 15.5552 7.25238 15.75 8.25 15.75Z" stroke="var(--stroke-0, #4A5578)" stroke-width="1.5" stroke-linecap="round" stroke-linejoin="round"/>
</svg>
