<svg preserveAspectRatio="none" width="100%" height="100%" overflow="visible" style="display: block;" viewBox="0 0 17.1733 15.8333" fill="none" xmlns="http://www.w3.org/2000/svg">
<path id="Icon" d="M5.50663 6.25H8.83996M5.50663 9.16667H11.34M9.25663 15C13.1686 15 16.34 11.8287 16.34 7.91667C16.34 4.00465 13.1686 0.833333 9.25663 0.833333C5.34461 0.833333 2.1733 4.00465 2.1733 7.91667C2.1733 8.70833 2.30317 9.46966 2.54277 10.1805C2.63294 10.448 2.67802 10.5818 2.68615 10.6845C2.69418 10.786 2.68811 10.8571 2.66301 10.9558C2.63759 11.0557 2.58146 11.1596 2.46921 11.3673L1.10616 13.8903C0.911735 14.2502 0.814522 14.4301 0.836279 14.569C0.855229 14.6899 0.92642 14.7964 1.03094 14.8602C1.15094 14.9334 1.35438 14.9124 1.76125 14.8703L6.02877 14.4292C6.158 14.4158 6.22262 14.4091 6.28151 14.4114C6.33944 14.4136 6.38033 14.4191 6.43682 14.4321C6.49426 14.4453 6.56648 14.4731 6.71093 14.5288C7.50097 14.8331 8.35931 15 9.25663 15Z" stroke="var(--stroke-0, #4A5578)" stroke-width="1.66667" stroke-linecap="round" stroke-linejoin="round"/>
</svg>
