<svg preserveAspectRatio="none" width="100%" height="100%" overflow="visible" style="display: block;" viewBox="0 0 19.5 19.5" fill="none" xmlns="http://www.w3.org/2000/svg">
<path id="Icon" d="M17.2616 10.4942C17.2616 15.0538 13.5654 18.75 9.0058 18.75C4.44625 18.75 0.75 15.0538 0.75 10.4942C0.75 5.93465 4.44625 2.2384 9.0058 2.2384M5.70348 12.1454C5.70348 12.1454 6.94185 13.7965 9.0058 13.7965C11.0697 13.7965 12.3081 12.1454 12.3081 12.1454M11.4825 8.01746H11.4908M6.52906 8.01746H6.53731M15.75 0.75V3.75M15.75 3.75V6.75M15.75 3.75H12.75M15.75 3.75H18.75M11.8953 8.01746C11.8953 8.24544 11.7105 8.43025 11.4825 8.43025C11.2546 8.43025 11.0697 8.24544 11.0697 8.01746C11.0697 7.78948 11.2546 7.60467 11.4825 7.60467C11.7105 7.60467 11.8953 7.78948 11.8953 8.01746ZM6.94185 8.01746C6.94185 8.24544 6.75704 8.43025 6.52906 8.43025C6.30108 8.43025 6.11627 8.24544 6.11627 8.01746C6.11627 7.78948 6.30108 7.60467 6.52906 7.60467C6.75704 7.60467 6.94185 7.78948 6.94185 8.01746Z" stroke="var(--stroke-0, #4A5578)" stroke-width="1.5" stroke-linecap="round" stroke-linejoin="round"/>
</svg>
