<svg preserveAspectRatio="none" width="100%" height="100%" overflow="visible" style="display: block;" viewBox="0 0 18.1668 16.5001" fill="none" xmlns="http://www.w3.org/2000/svg">
<path id="Icon" d="M2.41673 4.91389C2.28005 4.91036 2.18081 4.90245 2.09157 4.8847C1.43042 4.75319 0.913594 4.23636 0.782083 3.57521C0.750058 3.41421 0.750058 3.2206 0.750058 2.83339C0.750058 2.44618 0.750058 2.25257 0.782083 2.09157C0.913594 1.43042 1.43042 0.913594 2.09157 0.782083C2.25257 0.750058 2.44618 0.750058 2.83339 0.750058H15.3334C15.7206 0.750058 15.9142 0.750058 16.0752 0.782083C16.7364 0.913594 17.2532 1.43042 17.3847 2.09157C17.4167 2.25257 17.4167 2.44618 17.4167 2.83339C17.4167 3.2206 17.4167 3.41421 17.3847 3.57521C17.2532 4.23636 16.7364 4.75319 16.0752 4.8847C15.986 4.90245 15.8867 4.91036 15.7501 4.91389M7.41673 9.08339H10.7501M2.41673 4.91672H15.7501V11.7501C15.7501 13.1502 15.7501 13.8503 15.4776 14.385C15.2379 14.8554 14.8554 15.2379 14.385 15.4776C13.8503 15.7501 13.1502 15.7501 11.7501 15.7501H6.41673C5.01659 15.7501 4.31653 15.7501 3.78175 15.4776C3.31134 15.2379 2.92889 14.8554 2.68921 14.385C2.41673 13.8503 2.41673 13.1502 2.41673 11.7501V4.91672Z" stroke="var(--stroke-0, #535862)" stroke-width="1.5" stroke-linecap="round" stroke-linejoin="round"/>
</svg>
