<svg preserveAspectRatio="none" width="100%" height="100%" overflow="visible" style="display: block;" viewBox="0 0 12.0001 13.3333" fill="none" xmlns="http://www.w3.org/2000/svg">
<path id="Icon" d="M11.3334 12.6667C11.3334 11.7363 11.3334 11.2711 11.2186 10.8926C10.96 10.0403 10.2931 9.37336 9.44082 9.11482C9.06229 9 8.5971 9 7.66672 9H4.33339C3.40301 9 2.93783 9 2.55929 9.11482C1.70703 9.37336 1.04008 10.0403 0.781549 10.8926C0.666722 11.2711 0.666722 11.7363 0.666722 12.6667M9.00006 3.66667C9.00006 5.32352 7.65691 6.66667 6.00006 6.66667C4.3432 6.66667 3.00006 5.32352 3.00006 3.66667C3.00006 2.00981 4.3432 0.666667 6.00006 0.666667C7.65691 0.666667 9.00006 2.00981 9.00006 3.66667Z" stroke="var(--stroke-0, #5D6B98)" stroke-width="1.33333" stroke-linecap="round" stroke-linejoin="round"/>
</svg>
