<svg preserveAspectRatio="none" width="100%" height="100%" overflow="visible" style="display: block;" viewBox="0 0 17.3333 16.5324" fill="none" xmlns="http://www.w3.org/2000/svg">
<path id="Icon" d="M13.3199 14.2704C11.9674 15.2531 10.3384 15.7824 8.6666 15.7824C6.99476 15.7824 5.36584 15.2531 4.0133 14.2704M12.137 0.750247C13.6397 1.48313 14.8717 2.67291 15.6566 4.14905C16.4415 5.62519 16.7389 7.31192 16.5062 8.96749M0.827054 8.96741C0.594379 7.31185 0.891795 5.62512 1.67667 4.14897C2.46155 2.67283 3.6936 1.48305 5.19624 0.75017M13.0208 7.8657C13.0208 10.2704 11.0713 12.2199 8.6666 12.2199C6.26186 12.2199 4.31243 10.2704 4.31243 7.8657C4.31243 5.46096 6.26186 3.51153 8.6666 3.51153C11.0713 3.51153 13.0208 5.46096 13.0208 7.8657Z" stroke="var(--stroke-0, #7D89B0)" stroke-width="1.5" stroke-linecap="round" stroke-linejoin="round"/>
</svg>
