<svg preserveAspectRatio="none" width="100%" height="100%" overflow="visible" style="display: block;" viewBox="0 0 16.8191 15.4792" fill="none" xmlns="http://www.w3.org/2000/svg">
<path id="Icon" d="M5.32956 6.07292H8.66289M5.32956 8.98958H11.1629M9.07956 14.8229C12.9916 14.8229 16.1629 11.6516 16.1629 7.73958C16.1629 3.82757 12.9916 0.65625 9.07956 0.65625C5.16754 0.65625 1.99623 3.82757 1.99623 7.73958C1.99623 8.53125 2.1261 9.29258 2.3657 10.0034C2.45587 10.2709 2.50095 10.4047 2.50908 10.5074C2.51711 10.6089 2.51104 10.6801 2.48594 10.7787C2.46052 10.8786 2.40439 10.9825 2.29214 11.1903L0.929089 13.7132C0.734663 14.0731 0.63745 14.253 0.659207 14.3919C0.678158 14.5129 0.749348 14.6194 0.853871 14.6831C0.973873 14.7563 1.17731 14.7353 1.58418 14.6932L5.8517 14.2521C5.98093 14.2387 6.04555 14.2321 6.10444 14.2343C6.16237 14.2365 6.20326 14.242 6.25975 14.255C6.31719 14.2682 6.38941 14.296 6.53385 14.3517C7.3239 14.6561 8.18224 14.8229 9.07956 14.8229Z" stroke="var(--stroke-0, #7D89B0)" stroke-width="1.3125" stroke-linecap="round" stroke-linejoin="round"/>
</svg>
