<svg preserveAspectRatio="none" width="100%" height="100%" overflow="visible" style="display: block;" viewBox="0 0 13.3334 14.8333" fill="none" xmlns="http://www.w3.org/2000/svg">
<path id="Icon" d="M12.6667 14.1667C12.6667 13.12 12.6667 12.5967 12.5375 12.1708C12.2467 11.212 11.4964 10.4617 10.5376 10.1708C10.1117 10.0417 9.58838 10.0417 8.54171 10.0417H4.79172C3.74504 10.0417 3.2217 10.0417 2.79586 10.1708C1.83705 10.4617 1.08674 11.212 0.795893 12.1708C0.666714 12.5967 0.666714 13.12 0.666714 14.1667M10.0417 4.04167C10.0417 5.90563 8.53067 7.41667 6.66671 7.41667C4.80275 7.41667 3.29171 5.90563 3.29171 4.04167C3.29171 2.17771 4.80275 0.666667 6.66671 0.666667C8.53067 0.666667 10.0417 2.17771 10.0417 4.04167Z" stroke="var(--stroke-0, #5D6B98)" stroke-width="1.33333" stroke-linecap="round" stroke-linejoin="round"/>
</svg>
