<svg preserveAspectRatio="none" width="100%" height="100%" overflow="visible" style="display: block;" viewBox="0 0 17.3333 17.3333" fill="none" xmlns="http://www.w3.org/2000/svg">
<path id="Icon" d="M5.5 5.5V3.28333C5.5 2.39658 5.5 1.95321 5.67257 1.61452C5.82437 1.31659 6.06659 1.07437 6.36452 0.922574C6.70321 0.750001 7.14658 0.750001 8.03333 0.750001H14.05C14.9367 0.750001 15.3801 0.750001 15.7188 0.922574C16.0167 1.07437 16.259 1.31659 16.4108 1.61452C16.5833 1.95321 16.5833 2.39658 16.5833 3.28333V9.3C16.5833 10.1868 16.5833 10.6301 16.4108 10.9688C16.259 11.2667 16.0167 11.509 15.7188 11.6608C15.3801 11.8333 14.9367 11.8333 14.05 11.8333H11.8333M3.28333 16.5833H9.3C10.1868 16.5833 10.6301 16.5833 10.9688 16.4108C11.2667 16.259 11.509 16.0167 11.6608 15.7188C11.8333 15.3801 11.8333 14.9367 11.8333 14.05V8.03333C11.8333 7.14658 11.8333 6.70321 11.6608 6.36452C11.509 6.06659 11.2667 5.82437 10.9688 5.67257C10.6301 5.5 10.1868 5.5 9.3 5.5H3.28333C2.39658 5.5 1.95321 5.5 1.61452 5.67257C1.31659 5.82437 1.07437 6.06659 0.922574 6.36452C0.750001 6.70321 0.750001 7.14658 0.750001 8.03333V14.05C0.750001 14.9367 0.750001 15.3801 0.922574 15.7188C1.07437 16.0167 1.31659 16.259 1.61452 16.4108C1.95321 16.5833 2.39658 16.5833 3.28333 16.5833Z" stroke="var(--stroke-0, #7D89B0)" stroke-width="1.5" stroke-linecap="round" stroke-linejoin="round"/>
</svg>
