<svg preserveAspectRatio="none" width="100%" height="100%" overflow="visible" style="display: block;" viewBox="0 0 3.38095 15.0476" fill="none" xmlns="http://www.w3.org/2000/svg">
<g id="Icon">
<path d="M1.69048 8.35714C2.15071 8.35714 2.52381 7.98405 2.52381 7.52381C2.52381 7.06357 2.15071 6.69048 1.69048 6.69048C1.23024 6.69048 0.857143 7.06357 0.857143 7.52381C0.857143 7.98405 1.23024 8.35714 1.69048 8.35714Z" stroke="var(--stroke-0, #4A5578)" stroke-width="1.71429" stroke-linecap="round" stroke-linejoin="round"/>
<path d="M1.69048 2.52381C2.15071 2.52381 2.52381 2.15071 2.52381 1.69048C2.52381 1.23024 2.15071 0.857143 1.69048 0.857143C1.23024 0.857143 0.857143 1.23024 0.857143 1.69048C0.857143 2.15071 1.23024 2.52381 1.69048 2.52381Z" stroke="var(--stroke-0, #4A5578)" stroke-width="1.71429" stroke-linecap="round" stroke-linejoin="round"/>
<path d="M1.69048 14.1905C2.15071 14.1905 2.52381 13.8174 2.52381 13.3571C2.52381 12.8969 2.15071 12.5238 1.69048 12.5238C1.23024 12.5238 0.857143 12.8969 0.857143 13.3571C0.857143 13.8174 1.23024 14.1905 1.69048 14.1905Z" stroke="var(--stroke-0, #4A5578)" stroke-width="1.71429" stroke-linecap="round" stroke-linejoin="round"/>
</g>
</svg>
