<svg preserveAspectRatio="none" width="100%" height="100%" overflow="visible" style="display: block;" viewBox="0 0 17.1875 12.8941" fill="none" xmlns="http://www.w3.org/2000/svg">
<g id="Group">
<path id="Vector" d="M1.17184 12.894H3.9062V6.25335L0 3.32374V11.7222C0 12.3706 0.525422 12.894 1.17184 12.894Z" fill="var(--fill-0, #4285F4)"/>
<path id="Vector_2" d="M13.2812 12.8941H16.0156C16.664 12.8941 17.1875 12.3687 17.1875 11.7222V3.32374L13.2812 6.25343" fill="var(--fill-0, #34A853)"/>
<path id="Vector_3" d="M13.2812 1.1753V6.25343L17.1875 3.32382V1.76114C17.1875 0.311971 15.5332 -0.514231 14.375 0.354941" fill="var(--fill-0, #FBBC04)"/>
<path id="Vector_4" d="M3.9063 6.25335V1.1753L8.59376 4.69075L13.2812 1.17513V6.25327L8.59376 9.76897" fill="var(--fill-0, #EA4335)"/>
<path id="Vector_5" d="M1.7643e-06 1.76113V3.32365L3.90621 6.25334V1.1753L2.81248 0.354937C1.65232 -0.514235 1.7643e-06 0.311968 1.7643e-06 1.76113Z" fill="var(--fill-0, #C5221F)"/>
</g>
</svg>
